<?xml version="1.0" standalone="no"?><!DOCTYPE svg PUBLIC "-//W3C//DTD SVG 1.1//EN" "http://www.w3.org/Graphics/SVG/1.1/DTD/svg11.dtd"><svg t="1770261854617" class="icon" viewBox="0 0 1024 1024" version="1.1" xmlns="http://www.w3.org/2000/svg" p-id="2577" xmlns:xlink="http://www.w3.org/1999/xlink" width="200" height="200"><path d="M779.206412 759.901779c-7.270673-5.23352-12.401909-9.418632-22.135916-8.907213l-2.599713-3.460601c94.024371-42.967714 149.26614-106.605277 160.781589-210.252848 0.042618-0.357993 3.818595-1.065456 4.193635-5.949507 2.14796-28.204754-2.915088-62.316397-9.265206-89.984161-9.299301-40.521427-39.80544-98.328814-44.331498-132.943352-4.568676-34.964008 2.488905-79.116509 0.110808-115.546585-2.182054-33.472369-13.305416-86.762222-25.801086-118.487243-29.227592-74.147222-63.509708-57.355633-120.098213-22.928616-31.051653 18.89693-57.841481 43.581417-87.128739 64.021127l-57.875576-10.97846c-44.527542-1.926345-87.205452-4.440821-131.758565 0-16.348359 1.628017-37.146062 9.665818-53.835366 8.344653-16.186409-1.278547-37.316535-24.914626-51.559552-35.040721-20.806227-14.797054-50.996991-36.106177-73.959702-45.592998-44.859964-18.530413-62.981242-10.262473-81.622462 33.932646-18.700886 44.331498-27.531386 116.117669-29.926531 163.833056-1.423449 28.341133 3.912355 64.148982 0.178996 90.879144-1.721777 12.33372-15.282902 36.626119-19.732247 50.349195-18.061612 55.710569-33.378609 112.205314-25.613565 170.208745 2.292862 17.166629 4.210683 33.983788 8.89869 50.996991l3.469125 2.591189c-1.142169 7.679808 6.196693 15.615325 8.242368 20.610183 26.670497 65.129201 81.375276 105.411966 144.22014 134.051427 14.907862 6.793348 31.784687 10.373281 45.422525 18.47927 5.318757 3.162274 7.168389 5.796081 16.339835 4.312967l3.886784 10.143142c-5.446612 11.191551-13.424747 8.071896-20.218096 10.279521l-37.111967-14.6692c-28.63946 38.578035-48.993934 95.055733-18.436652 138.236538 3.758929 5.310233 12.555335 13.774217 18.445176 16.595544-0.622226 6.912679-21.633021 19.800436-24.727106 16.493261-0.477324-2.557095 0.715987-6.358642 0-8.250892-2.846899-7.483764-10.518183-10.62899-14.31973-16.595545-23.712791-37.163109-20.260713-75.783762-4.287395-115.393159 3.136703-7.773568 19.399825-34.205403 18.419605-38.697366-8.915737-12.947423-25.570947-15.896605-38.330849-23.721315C78.570996 661.803104 58.992174 528.425046 105.088067 380.497119c6.409784-20.567565 24.428778-53.375089 26.823923-72.118593 4.500487-35.117433-2.488905-79.039796-0.110807-115.546585 2.821328-43.359802 18.888406-130.974389 45.448096-164.796228C202.300283-3.859781 229.908382-5.896933 266.781687 8.738172c46.189653 18.334369 86.480942 54.721826 126.908609 81.963408 52.974478-11.660352 106.545611-11.79673 161.028775-11.242693l73.550566 12.205865c38.160376-31.648308 79.125033-66.450367 126.158528-84.230698 38.535417-14.57544 68.845512-6.460926 92.711729 26.960301 25.519805 35.73966 41.092511 134.87822 43.572893 179.047769 1.755872 31.32441-3.954973 69.024509-0.110807 99.053324 1.917821 14.941957 14.566916 35.313477 19.664058 50.417383 53.272806 157.977309 44.91963 289.318215-104.892024 383.930718-7.901423 4.994858-17.959328 8.157132-26.150555 13.015612z" fill="#4E2D23" p-id="2578"></path><path d="M317.480351 768.152671c13.228703 0.673368 10.25395-6.622875 12.359291-14.430537 9.469774-34.998102 26.355122-61.140134 61.779407-74.25803 8.429889-3.119655 31.733545-10.211331 39.225832-10.202807 3.980544 0 8.046325 3.349794 12.512717 3.954973 32.040396 4.312966 48.857556 11.344977 69.928015 37.205727 5.736416-8.966879 13.50146-16.834207 22.783714-22.553575 66.910644-41.203319 157.764218 1.159216 160.670782 80.284249 2.165007 2.190578 49.991201-17.081392 57.713627-20.610183l2.599712 3.460602c9.725483-0.511419 14.865244 3.665169 22.135917 8.907213-1.70473 1.005791-3.145226 5.361375-8.063372 4.287395-4.969287 4.466392 11.626257 29.883913 14.311206 36.873305 13.475889 35.066292 23.030899 74.070509 6.929727 110.117021-4.287395 9.606152-16.518832 21.752352-17.405291 27.949044-2.011581 13.919119 17.865568 75.391675 12.487145 80.488817-6.84449 0.076713-13.774217-0.085236-20.618706 0l-12.376338-65.964519c-1.960439-2.113865-20.848845 7.407051-26.866542 8.174179-16.058555 2.062723-34.989579-1.312642-51.465792 0.06819-9.435679-1.951916-19.911244-2.599713-28.997453-6.043267-14.098115-5.344328-24.744153-16.93649-38.560988-22.604717-19.502109 12.674666-79.23584 63.330711-99.317557 61.822025-5.915412-0.44323-25.562423-13.143467-32.441008-17.320054-21.709734-13.169038-42.013065-29.202021-62.469823-44.178073-17.720666 17.669524-40.529951 22.766666-63.901796 28.324086-15.163571-1.287071-32.577386 1.866679-47.340346-0.06819-10.34771-1.35526-20.005004-9.708436-30.983463-8.182703l-12.367815 70.089965c-6.853014-0.085236-13.774217 0.076713-20.618707 0l16.501785-82.449255c0.715987 1.89225-0.477324 5.685274 0 8.250892 3.094085 3.307176 24.113403-9.580581 24.727105-16.493261 8.020754 3.835642 38.918981 11.839348 47.613103 12.512717 2.386622 0.18752 28.63946-3.954973 32.151204-4.85848 2.105341-0.53699 2.420716-3.443554 2.684949-3.528791 21.658592-6.84449 40.350954-16.979109 50.357718-38.279707 24.462872-52.096542-17.865568-101.295044-73.0221-93.640807-6.759254 0.937601-12.410433 5.514801-18.564508 8.242369-6.725159 2.983277-14.277112 6.546162-20.516423 10.407375-4.705054 2.906564-19.885673 20.763609-24.693011 3.886784-5.421041-19.050355 27.275676-30.420903 41.083988-34.904343 6.793348-2.207625 14.780007 0.903507 20.218095-10.27952l-3.886784-10.143142c-9.171446 1.483115-11.021078-1.150693-16.339834-4.312967z m251.473213-70.089965c-28.588318 8.966879-37.938761 22.468339-55.650903 45.328765-18.044565-20.678372-35.73966-46.837451-65.794046-49.61616-61.233894-5.668227-97.578733 31.281791-101.175713 90.862097 58.310282-8.395794 102.565067 44.962248 94.817071 101.00524-1.662112 12.035392-14.780007 21.931349-12.188818 34.844677 17.149582 7.176912 31.622737 22.101822 47.851765 32.594433 5.148284 3.324223 11.694446 3.435031 13.808311 4.713578 4.116922 2.497429 17.268913 15.973318 18.487794 15.973318l88.279432-59.205265c-10.484088-15.649419-13.578173-33.012092-11.950156-51.585124 2.983277-9.478298 2.787233-21.505166 7.347386-31.810257 5.097142-11.523973 18.922501-27.480244 29.756058-34.145738 6.793348-4.185112 20.005004-10.236902 27.591052-11.575115 10.986983-1.943392 23.141707 3.051466 29.764582-6.904156-4.611294-10.25395-4.901098-21.027842-8.787882-32.14268-14.200399-40.581092-55.130961-58.148333-96.24052-52.522724-5.48923 0.750081-5.574466 4.099875-5.915413 4.210682z m98.942517 239.113923c0.34947 0.085236 0.767128 3.562885 5.940983 4.185112 27.47172 3.315699 70.345674 0.076713 88.9528-22.664383 33.84741-41.365268 10.296568-101.422898-16.49326-140.520876l-37.171633 10.594896c10.151666 15.308473 36.302221 14.76296 41.348221 34.946961l-6.435355 10.322138c-10.969936 3.051466-28.758791-15.853987-39.038312-20.541993-92.677635-42.260251-142.617693 83.148195-49.505353 121.794419 5.054524 2.096818 8.873119 1.031362 12.401909 1.883726z" fill="#533128" p-id="2579"></path><path d="M676.138449 961.912258c0.357993 0.076713 0.698939 3.469125 5.940984 4.185112 7.245102 0.997267 15.478946-0.698939 22.928615-0.068189 0.042618 10.262473-0.085236 20.610183 0 30.915274 0.059666 6.776301-3.042943 19.237876 4.108399 22.689954-122.092747 4.662436-248.447318 4.474916-373.28468 4.295919-5.898365 0-13.509984-4.440821-14.234494-4.295919l4.116923-53.605228c6.085885-0.562561 12.981517 1.07398 18.811693 0.076713 5.250568-0.894983 5.574466-4.108399 5.932459-4.193636 23.363322-5.557419 46.18113-10.646037 63.901796-28.324085 20.456757 14.984575 40.760089 31.009035 62.469823 44.178072 6.878585 4.176588 26.525595 16.868301 32.441008 17.320055 20.073193 1.508686 79.806925-49.14736 99.317557-61.822026 13.808311 5.668227 24.462872 17.260389 38.560988 22.604717 9.08621 3.443554 19.570298 4.091351 28.997453 6.043267z" fill="#F8F0DF" p-id="2580"></path><path d="M350.458348 961.912258c-0.34947 0.085236-0.673368 3.298652-5.932459 4.193636-5.830176 0.997267-12.734331-0.639274-18.811693-0.076713l-4.116923 53.605228c-22.033632 4.330014-38.237089 4.41525-61.839073 4.125446l12.367815-70.089965c10.97846-1.534257 20.635754 6.827443 30.983464 8.182703 14.76296 1.934868 32.176775-1.218882 47.340346 0.068189z" fill="#F5C07E" p-id="2581"></path><path d="M676.138449 961.912258c16.46769-1.389355 35.407238 1.994534 51.465793-0.068189 6.017696-0.775652 24.906102-10.288044 26.866541-8.174179l12.376338 65.964519c-19.152639 0.238662-38.595082-0.733034-57.713627 0-7.151341-3.443554-4.048733-15.913653-4.108398-22.689954-0.09376-10.305092 0.042618-20.652801 0-30.915274-7.449669-0.63075-15.67499 1.065456-22.928616 0.068189-5.242044-0.715987-5.58299-4.116922-5.940983-4.185112z" fill="#F6C17E" p-id="2582"></path><path d="M915.252372 537.289641c-7.773568-5.608561-9.111781-16.953538-14.532821-24.633346-9.418632-13.339511-21.539261-18.402558-34.938437-24.837913-2.744615-1.312642-5.455135-2.991801-8.242369-4.125446-0.340946-0.136378-0.068189-3.494696-5.906888-4.236253-9.410108-1.184787-25.400474-0.579608-35.322001 0.110807-36.992636 2.591189-55.744664 16.714876-86.574702 28.861076-6.205216 2.446287-19.391301 6.835966-24.735629 8.242368-3.486172 0.920554-15.598277 3.989068-16.493261 4.125446-1.338213 0.204568-2.770186-0.161949-4.125446 0-7.773568 0.946125-16.714876-0.63075-24.735629 0-41.331174-9.214064-38.254136-13.433271-70.260438-34.861724-47.775052-31.980731-102.914537-37.018207-152.249417-4.202159-34.469636 22.928616-29.704916 27.335342-74.309171 39.063883-13.075277 0.366517-28.758791-0.144902-41.22889-4.125446-14.31973-4.568676-34.333258-14.848196-49.471258-20.610183-10.586372-4.031686-20.269237-10.032335-32.977998-12.367815-2.437764-0.451753-5.531848 0.204568-8.242368 0l-2.574142-3.665169c-3.213416-1.091027-6.56321-0.289804-9.793673-0.451753-4.099875-0.204568-8.259416 0.042618-12.367814 0-9.000973-0.09376-20.448234-1.125122-28.861075 0-24.002595 3.221939-47.63015 20.541994-59.605877 41.399363-3.724835 6.477973-2.829851 16.723399-10.475565 20.43971-7.765044-57.994907 7.551953-114.498176 25.613565-170.208745 4.449345-13.731598 18.01047-38.023998 19.732247-50.349194 3.733358-26.730163-1.602446-62.538012-0.178996-90.879145 2.395145-47.715387 11.225646-119.493034 29.926531-163.833056 18.64122-44.19512 36.762498-52.463059 81.622462-33.932646 22.96271 9.486821 53.153475 30.795943 73.959702 45.592998 14.243017 10.126095 35.373143 33.762173 51.559552 35.040721 16.689305 1.321166 37.487008-6.716635 53.835366-8.344652 44.553113-4.440821 87.222499-1.926345 131.758565 0l57.875576 10.978459c29.295781-20.43971 56.077086-45.132721 87.128739-64.021127 56.579981-34.427018 90.870621-51.218606 120.098213 22.928616 12.504193 31.725021 23.619031 85.014874 25.801086 118.487243 2.378098 36.421552-4.679483 80.582577-0.110808 115.546585 4.526058 34.614538 35.032197 92.421925 44.331498 132.943352 6.350118 27.659241 11.413166 61.770884 9.265206 89.984161-0.375041 4.875527-4.151017 5.58299-4.193635 5.949507zM206.178543 228.094277c35.134481-32.185298 72.945387-60.94409 111.242142-88.824946 1.440497-4.798814-3.639598-7.262149-6.128503-10.126094-11.302358-12.990041-46.965305-45.976562-62.572107-49.002458-19.945338-3.861213-33.071758 23.985548-37.427342 39.71168-5.514801 19.919767-11.3535 69.399549-9.17997 89.600598 0.647797 5.992125 5.625608 11.643304 4.057257 18.632696z m610.131313 0v-68.018719c0-3.111132-8.140085-41.740309-10.100524-47.613102-20.806227-62.376063-69.825732-12.282578-95.030162 16.689304-2.488905 2.855422-7.560477 5.327281-6.128503 10.126095l55.676474 39.285498 55.582715 49.547971z m-477.460717 58.489278c-6.392737 6.154075-10.262473 21.087507-9.000974 30.15667 6.648446 47.519343 96.5218 66.7146 103.042392 20.618707 5.506277-38.918981-40.001484-67.098164-75.587719-59.128552-1.917821 0.434706-17.72919 7.654237-18.462223 8.353175z m294.67959-8.344652c-4.082828 0.894983-20.729514 9.486821-24.837913 12.265531-20.541994 13.867977-30.105528 41.177748-12.96447 61.293559 9.520916 11.174504 42.217633 10.211331 55.881042 6.358642 53.230187-15.001622 51.457268-95.16654-18.078659-79.917732zM305.973425 397.979123c-1.414926 1.406402-12.026869 20.132859-12.555335 22.485386-12.623524 56.520316 36.310744 103.298101 89.847783 77.479968 40.845326-19.698153 45.83166-77.514063 10.560801-105.028401-17.388244-13.569649-50.460002-18.257656-69.595593-7.603095-2.045676 1.142169-17.396767 11.813777-18.257656 12.666142z m427.878651 69.220553c2.608237-12.742855-4.611294-21.726781-14.345301-28.937788-32.057444-23.755409-104.849405-16.893872-117.583737 26.849494 3.997591 15.785798 37.708623-7.696855 48.218282-9.478298 8.975402-1.51721 23.320703-1.875203 32.355772-0.971696 18.820217 1.89225 32.210869 15.726132 51.363508 12.538288z" fill="#F7C17E" p-id="2583"></path><path d="M659.653712 520.79638c3.699264 0.826794 12.572382 8.421365 22.331961 3.682216l2.403669-3.682216c1.35526-0.161949 2.787233 0.204568 4.125446 0 12.640571-1.031362 9.145875 1.70473 4.082827 10.270997-19.493585 32.952427-17.533146 67.029975 4.713578 98.422574 8.881642 12.538288 40.419143 37.708623 55.10539 39.71168 30.318619 4.151017 71.087232-0.835318 100.28073-8.983926 10.688656-18.82874 28.809933-33.958217 38.714413-54.022887 10.935842-22.161487 5.156808-23.022376-0.042618-42.95919-5.855747-22.459815-16.21198-37.691575-20.823274-53.375089-1.994534-6.793348 0.826794-15.444852-4.756196-22.042157 13.399176 6.435355 25.519805 11.498402 34.938436 24.837913 5.421041 7.679808 6.759254 19.024784 14.532822 24.633346-11.51545 103.647571-66.757218 167.285133-160.781589 210.252847-7.713902 3.528791-55.540096 22.800761-57.713627 20.610183-2.906564-79.125033-93.760138-121.487568-160.670782-80.284249-9.290777 5.719368-17.055821 13.586696-22.783714 22.553575-21.07046-25.860751-37.887619-32.892761-69.928015-37.205727-4.474916-0.605179-8.532173-3.946449-12.512717-3.954973-7.500811 0-30.804467 7.083152-39.225832 10.202807-35.424285 13.126419-52.309633 39.259927-61.779407 74.25803-2.113865 7.807662 0.869412 15.103906-12.359291 14.430537-13.637838-8.10599-30.514663-11.685923-45.422525-18.47927-62.844863-28.63946-117.549642-68.922225-144.22014-134.051427l31.000511 24.658916c7.747997 3.716311 11.575115 16.169362 15.20619 19.834531 1.108074 1.116598 25.01691 16.322788 26.525595 16.757494 20.388568 5.881318 42.243204-3.929402 61.336178-7.569 6.324547-1.201834 13.714551 1.270024 20.022051-0.588132 5.173855-1.525733 13.390652-13.578173 19.161163-17.942281 6.350118-4.798814 14.208923-5.565943 20.661325-12.325196 5.39547-5.642656 27.82119-43.095569 28.707649-49.61616 2.915088-21.309122-1.977487-42.925096-4.142493-63.893273 8.157132 3.50322 14.532821-3.605503 16.510308-4.125446 44.604255-11.728541 39.839535-16.135267 74.309171-39.063883 49.33488-32.816048 104.482888-27.778572 152.249417 4.202159 32.006302 21.428453 28.929264 25.64766 70.260438 34.861724z m-170.293981-36.310744c-13.271321 2.24172-28.042805 10.807987-35.313477 22.383102-6.512068 49.377498 58.574515 70.12406 94.18632 44.732109 23.286609-16.604068 35.074815-41.680643 5.761987-59.1456-16.766017-9.989717-45.601522-11.191551-64.63483-7.978135zM430.861929 553.782901c-17.251865 4.875527 0.801223 44.885535 18.376987 51.687407 16.817159 6.503544 28.861075 5.847223 45.661187 0 5.165331-1.79849 15.001622-9.546487 18.394034-9.546486 4.653912 0 12.103581 8.574791 17.277436 10.663084 17.320055 6.989392 42.660863 5.77051 57.082877-7.31329 12.401909-11.251217 23.371845-48.013714-0.136378-41.365269-7.935517 2.24172-2.233196 27.292724-25.39195 32.321677-23.891788 5.190902-37.759765-17.430862-52.940384-16.092649-6.3075 0.554037-11.660352 7.91847-18.38551 10.72275-12.478622 5.216473-28.409322 6.989392-39.532684-2.037152-6.571733-5.327281-7.671284-32.645575-20.405615-29.048595z" fill="#FAF0DF" p-id="2584"></path><path d="M317.480351 792.8883c-13.808311 4.483439-46.505028 15.853987-41.083988 34.904343 4.807338 16.876825 19.979433-0.98022 24.693011-3.886784 6.239311-3.852689 13.791264-7.424098 20.516423-10.407375 5.906889 14.703294 5.685274 31.145413 9.197017 46.453886 6.102933 26.610832 15.547136 55.224721 32.031873 77.215735-0.264233 0.085236-0.579608 2.991801-2.68495 3.528791-3.511743 0.903507-29.756058 5.046-32.151203 4.85848-8.694122-0.673368-39.592349-8.677075-47.613103-12.512717-5.889841-2.821328-14.686247-11.285311-18.445176-16.595544-30.557281-43.180805-10.211331-99.667027 18.436652-138.236538l37.111967 14.6692z" fill="#F4C282" p-id="2585"></path><path d="M206.17002 479.56749c2.250243 8.566267-6.639922 10.543754-12.632048 14.149258-15.410757 9.265206-34.785011 14.115163-40.223099 33.992311-2.565618 9.393061-6.21374 20.499376-8.26794 28.844028-1.849632 7.526382-0.698939 16.271646-4.815861 24.045214-0.136378 23.226943 46.752214 66.646411 68.683563 71.445225 19.544727 4.270348 58.480755 1.653588 75.493958-9.725483 8.532173-5.702321 36.481217-38.049569 39.473018-47.110208 4.960764-15.018669 4.807338-35.705565 1.184787-51.073704-1.150693-4.901098-5.898365-11.251217-8.250892-16.493261-3.537314-7.884375-8.216798-12.33372 4.790291-10.969936 12.470098 3.980544 28.153612 4.491963 41.22889 4.125446-1.977487 0.519943-8.353176 7.628666-16.510308 4.125446 2.165007 20.968176 7.057581 42.58415 4.142493 63.893272-0.894983 6.520591-23.31218 43.973505-28.707649 49.616161-6.452402 6.75073-14.311207 7.517858-20.661325 12.325196-5.77051 4.364108-13.987308 16.416548-19.161163 17.942281-6.3075 1.858155-13.697504-0.613703-20.022051 0.588132-19.092974 3.639598-40.939086 13.450318-61.336178 7.569-1.508686-0.434706-25.426045-15.649419-26.525595-16.757494-3.631074-3.665169-7.466716-16.11822-15.20619-19.834531l-31.000511-24.658916c-2.045676-4.994858-9.393061-12.930375-8.242369-20.610183 0.042618-0.306851 4.253301-1.031362 3.460602-5.173855-1.014314-5.293186-5.327281-10.756845-3.656645-17.405291l8.677074-4.474916c-1.039885-10.049382 12.095058-58.293235 16.876825-63.032383 5.250568-5.207949 33.438275-9.759578 32.364295-25.340809 8.412841-1.125122 19.860102-0.09376 28.861075 0z" fill="#FAE4CE" p-id="2586"></path><path d="M177.308945 479.56749c1.07398 15.58123-27.113727 20.132859-32.364295 25.340809-4.781767 4.739149-17.91671 52.983002-16.876825 63.032383l-8.677075 4.474916c-1.670635 6.648446 2.650855 12.112105 3.656646 17.405291 0.792699 4.142493-3.40946 4.867004-3.460602 5.173855l-3.469125-2.591189c-4.688007-17.013203-6.597304-33.830363-8.898689-50.996992 7.645713-3.716311 6.759254-13.961737 10.475564-20.43971 11.975727-20.848845 35.603281-38.177423 59.605877-41.399363z" fill="#FAF0DF" p-id="2587"></path><path d="M568.953564 698.062706c50.289529 2.642331 58.190951 58.139809 53.596705 98.942517-10.833558 6.674017-24.658916 22.621764-29.756059 34.145737-4.560152 10.305092-4.364108 22.33196-7.347385 31.810258-9.205541 29.261687-30.045862 45.771995-51.610694 65.879283-12.069487 11.251217-24.522538 28.878122-43.206376 28.937788-2.113865-1.278547-8.660027-1.389355-13.808312-4.713578-16.237551-10.492612-30.710707-25.417521-47.851765-32.594434-2.599713-12.913328 10.518183-22.809284 12.188818-34.844676 7.747997-56.042992-36.506788-109.401034-94.81707-101.00524 3.59698-59.580306 39.941819-96.530324 101.175712-90.862097 30.054386 2.77871 47.749481 28.937788 65.794046 49.61616 17.712142-22.860426 27.062585-36.361886 55.650904-45.328765z m-132.00575 32.884238c5.23352-30.557281-27.855285-22.783714-45.149768-10.092-14.439061 10.594896-28.230325 38.441657-20.652802 55.471907 29.08269 6.801872 23.994072-30.386808 41.092512-39.157643 6.230787-3.196368 17.396767-3.392412 24.718581-6.222264z" fill="#E54641" p-id="2588"></path><path d="M667.896081 937.176629c21.760876-37.785336 30.923798-80.838286 37.103444-123.678145 10.279521 4.688007 28.068376 23.59346 39.038312 20.541993l6.435355-10.322138c-5.046-20.184001-31.196555-19.638487-41.348221-34.946961l37.171633-10.594896c26.789829 39.097978 50.332147 99.147084 16.49326 140.520876-18.607126 22.741095-61.472556 25.980082-88.9528 22.664383-5.173855-0.622226-5.591514-4.099875-5.940983-4.185112z" fill="#F4C282" p-id="2589"></path><path d="M704.999525 813.498484c-6.179645 42.839859-15.342568 85.884286-37.103444 123.678145-3.528791-0.852365-7.347385 0.213091-12.401909-1.883726-93.120864-38.646224-43.180805-164.05467 49.505353-121.794419z" fill="#F8F0E0" p-id="2590"></path><path d="M362.826163 937.176629c-16.484737-21.999538-25.92894-50.604904-32.031873-77.215735-3.511743-15.308473-3.290128-31.759116-9.197017-46.453887 6.154075-2.727568 11.805254-7.304767 18.564508-8.242368 55.156532-7.654237 97.484973 41.544265 73.0221 93.640807-9.99824 21.300599-28.699126 31.435217-50.357718 38.279707z" fill="#F9EFDF" p-id="2591"></path><path d="M622.550269 797.005223c4.594247-40.802707-3.298652-96.300185-53.596705-98.942517 0.34947-0.110807 0.426182-3.460601 5.915413-4.210682 41.101035-5.625608 82.031597 11.950156 96.24052 52.522724 3.895308 11.114838 4.176588 21.88873 8.787882 32.14268-6.622875 9.964146-18.777599 4.969287-29.764582 6.904156-7.586048 1.338213-20.78918 7.390004-27.591052 11.575115z" fill="#D32B27" p-id="2592"></path><path d="M490.629755 957.786812c18.683838-0.059666 31.136889-17.686571 43.206376-28.937788 21.573355-20.107288 42.405153-36.617596 51.610694-65.879282-1.628017 18.564507 1.457544 35.935704 11.950156 51.585123l-88.279432 59.205265c-1.218882 0-14.370872-13.475889-18.487794-15.973318z" fill="#D02524" p-id="2593"></path><path d="M305.973425 397.979123c0.860889-0.852365 16.203457-11.523973 18.257656-12.666142 19.144115-10.654561 52.20735-5.966554 69.595593 7.603095 35.262336 27.514339 30.284525 85.330249-10.560801 105.028401-53.537039 25.818133-102.471307-20.959653-89.847783-77.479968 0.528466-2.352527 11.140409-21.078984 12.555335-22.485386z m94.91083 17.839997c0-10.484088-8.498078-18.982166-18.982166-18.982166s-18.982166 8.498078-18.982166 18.982166 8.498078 18.982166 18.982166 18.982166 18.982166-8.498078 18.982166-18.982166z" fill="#523129" p-id="2594"></path><path d="M816.309856 479.56749c2.42924 13.586696 18.146849 17.584288 26.696068 28.954836 2.599713 3.460601 10.594896 16.859778 12.299625 20.678372 2.701997 6.043267 14.243017 42.788718 13.902072 46.522076-2.326956 25.826656-38.586559 63.356282-63.978509 67.984623-9.844814 1.79849-42.038636-4.014639-51.960164-8.344652-31.460788-13.714551-55.241769-67.754485-39.259926-99.377223 2.582666-5.114189 7.313291-8.881642 10.918794-13.816834 1.431973-1.960439 11.805254-13.288369 4.807338-13.748646 30.830038-12.1462 49.582066-26.261362 86.574702-28.861075z m-69.348408 118.845237c7.722426 0.53699 11.148933 8.498078 15.785798 10.995507 21.863159 11.779683 55.395194 9.699912 70.21782-12.171771 3.844166-5.67675 12.845139-27.130774 12.384862-33.063234-0.255709-3.324223-10.697179-28.468987-13.083802-32.543291-5.327281-9.094733-27.505815-27.497291-37.845001-26.619356-24.556632 4.653912-45.192386 11.242693-54.542829 36.251079-1.51721 4.065781-6.017696 19.732247-6.085885 22.877474-0.136378 6.853014 12.367815 24.837913 13.15199 34.273592z" fill="#F9D2B6" p-id="2595"></path><path d="M272.134539 496.060751c-7.313291 1.091027 2.326956 12.589429 4.014638 14.541345 9.239635 10.637514 24.13045 19.374254 28.213278 33.608748 2.863946 9.972669 3.034419 38.808173 0.25571 48.235329-0.375041 1.270024-14.098115 19.203781-16.02446 21.078984-2.045676 1.98601-16.476213 12.325196-19.263447 13.723074-31.060177 15.615325-56.392461 9.759578-81.784411-11.54102-27.241582-22.843379-34.375876-43.300136-19.280494-77.15607 2.761662-6.188169 6.009172-13.211656 10.961413-17.891139 3.980544-3.758929 31.332933-24.812342 35.083338-26.755734 6.512068-3.366841 12.1462-1.51721 18.666792-1.951916 10.083477-0.673368 13.59522 3.213416 6.171121-8.242368 12.708761 2.33548 22.391626 8.336129 32.977998 12.367814z m-46.735167 21.292075c-17.533146 3.886784-42.157967 28.324085-39.899201 46.709596 2.207625 18.001946 26.534119 42.86543 44.016123 46.863022 22.255247 5.088618 55.054248-29.005977 55.165056-51.03961 0.025571-4.398203-16.37393-28.690602-20.934082-32.756383-11.16598-9.947098-23.431511-13.083801-38.339373-9.776625z" fill="#F9CBAF" p-id="2596"></path><path d="M206.178543 228.094277c1.576875-6.989392-3.40946-12.640571-4.057257-18.632697-2.182054-20.201048 3.665169-69.689353 9.17997-89.600597 4.355585-15.726132 17.482004-43.572893 37.427343-39.71168 15.606801 3.017372 51.269748 36.012417 62.572106 49.002457 2.488905 2.855422 7.560477 5.327281 6.128504 10.126095-38.305278 27.889379-76.107661 56.639647-111.242142 88.824945z" fill="#FAC6B8" p-id="2597"></path><path d="M816.309856 228.094277l-55.582715-49.547971-55.676474-39.285498c-1.440497-4.798814 3.639598-7.262149 6.128503-10.126095 25.20443-28.963359 74.223935-79.056844 95.030162-16.689305 1.960439 5.872794 10.100524 44.501971 10.100524 47.613103v68.018718z" fill="#F9C5B7" p-id="2598"></path><path d="M218.537834 479.56749l2.574142 3.665169c3.196368 1.142169 6.614352 0.213091 9.793673 0.451754 2.71052 0.204568 5.804605-0.451753 8.242368 0 7.415575 11.455784 3.912355 7.569-6.171121 8.242368-6.520591 0.434706-12.154723-1.414926-18.666792 1.951916-3.750406 1.943392-31.102795 22.996805-35.083338 26.755734-4.95224 4.679483-8.208274 11.70297-10.961413 17.891139-15.095382 33.855933-7.961088 54.312691 19.280494 77.15607 25.400474 21.300599 50.724235 27.156345 81.784411 11.54102 2.77871-1.397878 17.209247-11.728541 19.263447-13.723074 1.926345-1.875203 15.649419-19.80896 16.02446-21.078984 2.77871-9.427156 2.608237-38.26266-0.25571-48.235329-4.082828-14.22597-18.965119-22.971234-28.213278-33.608748-1.687682-1.943392-11.327929-13.450318-4.014638-14.541345 15.129477 5.761987 35.151528 16.041507 49.471258 20.610183-12.998565-1.363784-8.319081 3.094085-4.790291 10.969936 2.352527 5.242044 7.091676 11.592163 8.250892 16.493261 3.622551 15.368139 3.775976 36.055035-1.184787 51.073704-2.991801 9.052115-30.940846 41.399363-39.473018 47.110208-17.021727 11.387595-55.957755 14.004355-75.493958 9.725483-21.931349-4.798814-68.819941-48.218282-68.683563-71.445225 4.116922-7.782091 2.974753-16.518832 4.815861-24.045214 2.045676-8.344652 5.693797-19.450967 8.26794-28.844028 5.438088-19.885673 24.820866-24.735629 40.223099-33.992311 5.992125-3.605503 14.890815-5.574466 12.632048-14.149258 4.108399 0.042618 8.267939-0.204568 12.367814 0z" fill="#FADBC2" p-id="2599"></path><path d="M857.538745 483.692936c2.787233 1.133645 5.506277 2.80428 8.242369 4.125446 5.591514 6.605828 2.761662 15.257332 4.756196 22.042157 4.611294 15.683514 14.976051 30.915275 20.823274 53.375089 5.190902 19.936815 10.969936 20.797703 0.042619 42.95919-9.895956 20.06467-28.025758 35.194146-38.714414 54.022887-29.184974 8.148608-69.96211 13.134943-100.280729 8.983926-14.686247-2.011581-46.215224-27.181916-55.10539-39.71168-22.255247-31.392599-24.215687-65.470147-4.713578-98.422574 5.063047-8.557744 8.557744-11.293835-4.082828-10.270997 0.894983-0.136378 13.007088-3.204892 16.493261-4.125446 11.626257-1.295595 10.25395 2.454811 4.108398 10.288044-14.592487 18.598602-15.896605 38.07514-12.444527 61.941357 1.824061 12.615 28.477511 42.882478 39.17469 51.516934 17.533146 14.157781 27.591052 11.472831 48.789367 15.589754 18.325845-6.614352 43.138187-3.077037 58.557468-15.589754 12.529764-18.078659 35.006626-34.120167 38.535416-56.6226 0.468801-2.983277-3.281605-26.730163-4.355584-31.315886-4.466392-19.161163-17.132534-46.08737-30.173717-60.526431l10.339186-8.276463z" fill="#FAE3CC" p-id="2600"></path><path d="M338.849139 286.583555c0.733034-0.698939 16.535879-7.926993 18.462223-8.353175 35.577711-7.969612 81.085472 20.209572 75.587719 59.128552-6.520591 46.104417-96.402469 26.90916-103.042392-20.618707-1.270024-9.069162 2.599713-24.002595 9.000973-30.15667z" fill="#F8F0DF" p-id="2601"></path><path d="M633.528729 278.238903c69.527404-15.248808 71.308847 64.91611 18.078659 79.917732-13.663409 3.852689-46.351603 4.815862-55.881042-6.358642-17.141058-20.115811-7.586048-47.425583 12.96447-61.293559 4.116922-2.77871 20.755085-11.370548 24.837913-12.265531z" fill="#F8F0DE" p-id="2602"></path><path d="M857.538745 483.692936l-10.339186 8.276464c13.041183 14.439061 25.707325 41.365268 30.173717 60.52643 1.065456 4.585723 4.824385 28.332609 4.355585 31.315886-3.528791 22.493909-26.014176 38.54394-38.535417 56.6226-15.419281 12.504193-40.231623 8.975402-58.557468 15.589754-21.189791-4.116922-31.256221-1.431973-48.789366-15.589754-10.697179-8.64298-37.35063-38.901934-39.17469-51.516934-3.452078-23.866217-2.156483-43.342755 12.444527-61.941356 6.145551-7.833233 7.517858-11.592163-4.108399-10.288045 5.344328-1.406402 18.530413-5.804605 24.735629-8.242368 7.006439 0.460277-3.366841 11.788206-4.807338 13.748646-3.605503 4.926669-8.336129 8.702646-10.918794 13.816834-15.981842 31.622737 7.799139 85.662672 39.259927 99.377223 9.921527 4.32149 42.115349 10.134619 51.960164 8.344652 25.39195-4.628341 61.660076-42.149444 63.978508-67.984623 0.332422-3.733358-11.200075-40.478809-13.902071-46.522076-1.70473-3.818595-9.699912-17.217771-12.299625-20.678372-8.54922-11.370548-24.266828-15.376663-26.696069-28.954836 9.921527-0.698939 25.903369-1.295595 35.322001-0.110807 5.8387 0.733034 5.574466 4.099875 5.906889 4.236253z" fill="#F9E1C9" p-id="2603"></path><path d="M733.852076 467.199676c-19.144115 3.196368-32.543292-10.646037-51.363508-12.538288-9.035068-0.903507-23.371845-0.554037-32.355771 0.971696-10.509659 1.781443-44.220691 25.264095-48.218282 9.478298 12.742855-43.743366 85.526293-50.604904 117.583736-26.849494 9.725483 7.211007 16.953538 16.186409 14.345302 28.937788z" fill="#543329" p-id="2604"></path><path d="M684.389342 520.79638l-2.403669 3.682216c-9.759578 4.739149-18.632697-2.855422-22.331961-3.682216 8.020754-0.63075 16.962061 0.946125 24.73563 0z" fill="#FAE3CC" p-id="2605"></path><path d="M230.905649 483.692936c-3.179321-0.238662-6.597304 0.690416-9.793673-0.451753l-2.574142-3.665169c3.238987 0.161949 6.580257-0.639274 9.793673 0.451753l2.574142 3.665169z" fill="#F9CBAF" p-id="2606"></path><path d="M489.359731 484.485636c19.033308-3.213416 47.868812-2.011581 64.63483 7.978135 29.312829 17.464957 17.524622 42.541532-5.761987 59.1456-35.611805 25.39195-100.698388 4.636865-94.18632-44.73211 7.270673-11.575115 22.042156-20.141382 35.313477-22.383102z" fill="#53332A" p-id="2607"></path><path d="M430.861929 553.782901c12.725808-3.59698 13.833882 23.721315 20.405615 29.048596 11.123362 9.018021 27.045538 7.253625 39.532684 2.037152 6.733683-2.812804 12.086534-10.168713 18.38551-10.72275 15.180619-1.338213 29.040072 21.283551 52.940384 16.092649 23.158754-5.028953 17.456433-30.079957 25.39195-32.321677 23.508224-6.648446 12.538288 30.114052 0.136378 41.365268-14.422014 13.075277-39.762822 14.302683-57.082877 7.313291-5.173855-2.088294-12.623524-10.663085-17.277436-10.663085-3.392412 0-13.228703 7.747997-18.394034 9.546487-16.800112 5.847223-28.852552 6.503544-45.661187 0-17.575764-6.793348-35.628852-46.81188-18.376987-51.687407z" fill="#4E3027" p-id="2608"></path><path d="M436.947814 730.946944c-7.321814 2.829851-18.487794 3.025895-24.718582 6.222264-17.089916 8.762311-12.001298 45.959515-41.092511 39.157643-7.577524-17.021727 6.21374-44.877011 20.652801-55.471907 17.294484-12.691713 50.383289-20.465281 45.149768 10.092z" fill="#F6F9F8" p-id="2609"></path><path d="M381.902089 415.81912m-18.982166 0a18.982166 18.982166 0 1 0 37.964332 0 18.982166 18.982166 0 1 0-37.964332 0Z" fill="#EEE7DD" p-id="2610"></path><path d="M746.961448 598.412727c-0.784176-9.435679-13.288369-27.420579-13.15199-34.273592 0.059666-3.145226 4.560152-18.820217 6.085885-22.877474 9.350443-24.999862 29.986197-31.597166 54.54283-36.251079 10.330662-0.877936 32.517721 17.524622 37.845001 26.619356 2.386622 4.074304 12.828092 29.219068 13.083801 32.543291 0.460277 5.93246-8.540696 27.386484-12.384862 33.063234-14.831149 21.871683-48.35466 23.951453-70.21782 12.171771-4.636865-2.497429-8.071896-10.458517-15.785798-10.995507z" fill="#F9C1A2" p-id="2611"></path><path d="M225.399372 517.352826c14.907862-3.307176 27.173393-0.170473 38.339372 9.776625 4.560152 4.065781 20.959653 28.35818 20.934082 32.756383-0.110807 22.033632-32.909808 56.128228-55.165056 51.03961-17.482004-3.997591-41.799974-28.861075-44.016123-46.863022-2.258767-18.385511 22.366055-42.822812 39.899201-46.709596z" fill="#F9BB9C" p-id="2612"></path></svg>