<svg t="1713422605299" viewBox="0 0 1024 1024" version="1.1" xmlns="http://www.w3.org/2000/svg" p-id="4946" width="200" height="200"><path d="M579.6190625 514.446875L885.42124999 820.25c18.759375 18.759375 18.826875 49.1878125 0 68.0146875-18.7603125 18.7603125-49.18874999 18.826875-68.01562499 0L511.6053125 582.4625 205.803125 888.26375001c-18.7603125 18.7603125-49.1878125 18.826875-68.015625-2e-8-18.759375-18.7603125-18.8259375-49.1878125 0-68.01562499L443.65624999 514.38125001 137.853125 208.578125c-18.759375-18.759375-18.8259375-49.1878125 0-68.0146875 18.76124999-18.759375 49.18874999-18.826875 68.01562501 0l305.80124999 305.8021875 305.80124999-305.8021875c18.7603125-18.759375 49.18874999-18.826875 68.01562501 0 18.759375 18.7603125 18.8259375 49.18874999 0 68.015625L579.618125 514.446875z" fill="" p-id="4947"></path></svg>